PathFileType	4	(X/Y/Z)	C:\Users\dbl\Desktop\20210112(1)\20210112\bx_y_10_901.trc
DataRate	CameraRate	NumFrames	NumMarkers	Units	OrigDataRate	OrigDataStartFrame	OrigNumFrames
50.00	50.00	       4	43	mm	50.00	133	       530
Frame#	Time	Top.Head			R.Acromium			L.Acromium			Sternum			R.ASIS			L.ASIS			V.Sacral			R.Thigh.Upper			R.Thigh.Front			R.Thigh.Rear			R.Knee.Lat			R.Knee.Med			R.Shank.Upper			R.Shank.Front			R.Shank.Rear			R.Ankle.Lat			R.Midfoot.Lat			R.Toe.Lat			R.Toe.Tip			R.Toe.Med			R.Ankle.Med			R.Midfoot.Sup			R.Heel			L.Thigh.Upper			L.Thigh.Front			L.Thigh.Rear			L.Knee.Lat			L.Knee.Med			L.Shank.Upper			L.Shank.Front			L.Shank.Rear			L.Ankle.Lat			L.Midfoot.Lat			L.Toe.Lat			L.Toe.Tip			L.Toe.Med			L.Ankle.Med			L.Midfoot.Sup			L.Heel			origin1 front left			origin2 front right			origin 3 back right			origin 4 back leftt			
		X1	Y1	Z1	X2	Y2	Z2	X3	Y3	Z3	X4	Y4	Z4	X5	Y5	Z5	X6	Y6	Z6	X7	Y7	Z7	X8	Y8	Z8	X9	Y9	Z9	X10	Y10	Z10	X11	Y11	Z11	X12	Y12	Z12	X13	Y13	Z13	X14	Y14	Z14	X15	Y15	Z15	X16	Y16	Z16	X17	Y17	Z17	X18	Y18	Z18	X19	Y19	Z19	X20	Y20	Z20	X21	Y21	Z21	X22	Y22	Z22	X23	Y23	Z23	X24	Y24	Z24	X25	Y25	Z25	X26	Y26	Z26	X27	Y27	Z27	X28	Y28	Z28	X29	Y29	Z29	X30	Y30	Z30	X31	Y31	Z31	X32	Y32	Z32	X33	Y33	Z33	X34	Y34	Z34	X35	Y35	Z35	X36	Y36	Z36	X37	Y37	Z37	X38	Y38	Z38	X39	Y39	Z39	X40	Y40	Z40	X41	Y41	Z41	X42	Y42	Z42	X43	Y43	Z43	

133	2.640	-106.84174	128.77074	1009.65576	-309.15698	-40.12931	863.21045	-338.79474	267.82080	905.24164	-384.58997	74.45096	1033.00781	-785.32196	-5.97811	953.09863	-812.19006	193.42311	976.32678	-908.20770	80.64875	1105.17065	-851.31805	-84.80697	856.44629	-773.95056	-15.02771	798.35095	-862.73431	-70.88805	702.25079	-852.07043	-40.12330	597.75598	-833.57678	67.86201	555.34595	-827.92975	-34.87514	556.53613	-768.27728	11.49025	524.04510	-850.38855	-46.42171	469.34961	-773.49292	-14.32658	201.51920	-663.35004	-67.69963	161.50003	-622.22382	-79.45670	156.89755	-563.14661	-35.38356	163.68602	-605.15002	20.97660	166.96542	-730.70514	70.06780	221.92349	-678.15503	52.34266	163.21567	-798.63220	47.55758	172.82146	-854.22418	278.86172	856.70551	-785.87585	210.71964	795.27557	-883.49792	282.07428	726.78473	-885.61188	255.57433	634.95038	-810.16870	140.86212	563.56024	-850.60779	242.72429	558.41357	-784.61890	203.74731	531.88177	-868.71747	254.62837	479.20929	-777.71527	226.35895	200.10989	-666.08240	299.00757	159.31091	-627.71155	306.10934	161.41035	-561.60999	256.87585	164.61580	-597.35260	221.51256	173.20273	-722.60089	157.48795	222.33083	-677.90063	175.83226	162.03566	-800.39844	176.56889	180.46112	-528.24725	303.85919	146.31125	-518.22198	-72.56824	143.29330	-876.03149	-78.58807	141.51263	-882.55219	296.22617	144.73755	
134	2.660	-107.68048	128.79286	1007.88104	-309.42050	-40.63412	861.95233	-339.63223	267.26730	903.38647	-384.31067	74.24622	1032.05469	-785.65131	-5.99193	952.53503	-812.75159	193.00302	975.97229	-908.67523	80.39458	1104.98425	-851.88525	-85.07224	856.30389	-774.54218	-15.32165	798.24902	-863.21265	-71.02924	702.02161	-852.35065	-40.21059	597.47620	-833.70850	67.87500	555.43036	-828.47559	-35.04258	556.38452	-768.73822	11.32400	523.74719	-850.79041	-46.48335	469.21085	-773.41412	-14.25762	201.41777	-663.32678	-67.62257	161.55090	-622.21979	-79.46072	156.90913	-563.13080	-35.37985	163.70316	-605.07324	21.01760	166.99518	-730.72345	70.09229	221.90796	-678.15857	52.34863	163.21956	-798.62201	47.64894	172.84531	-854.75110	278.51328	856.51630	-786.31982	210.60667	795.26788	-883.88409	281.84662	726.63959	-885.87036	255.35132	634.96277	-810.64618	140.69403	563.44794	-850.94080	242.78746	558.21771	-784.81348	203.65581	531.91699	-869.15106	254.58432	479.06937	-777.70850	226.36172	200.09641	-666.06879	298.96783	159.34706	-627.68018	306.07614	161.39352	-561.58228	256.89520	164.61287	-597.39905	221.45554	173.07513	-722.59766	157.48747	222.32657	-677.91394	175.83800	162.01865	-800.43213	176.56375	180.46190	-528.25922	303.84637	146.31416	-518.24805	-72.53764	143.23146	-876.03156	-78.58291	141.51726	-882.55499	296.21756	144.71678	
135	2.680	-108.54901	128.78587	1006.42365	-309.76031	-41.16420	861.05249	-340.42380	266.69440	901.94196	-384.10275	74.04890	1031.24219	-785.95508	-6.00714	952.00964	-813.26715	192.59094	975.65186	-909.27179	80.07404	1104.78992	-852.51721	-85.30420	856.03082	-775.23352	-15.56260	798.05530	-863.81030	-71.26065	701.78729	-852.60345	-40.29651	597.20160	-833.80847	67.89280	555.52643	-829.09113	-35.15906	556.12976	-769.32642	11.14967	523.47443	-851.30109	-46.44834	468.94629	-773.34052	-14.15933	201.28355	-663.31622	-67.54585	161.59195	-622.21301	-79.44322	156.90636	-563.10486	-35.38431	163.70894	-604.98016	21.06275	167.00816	-730.74402	70.11523	221.89688	-678.12860	52.39673	163.21803	-798.61798	47.75922	172.86656	-855.27911	278.20160	856.35449	-786.88440	210.37543	795.18463	-884.39905	281.57529	726.44128	-886.09735	255.11877	634.95184	-811.17627	140.49374	563.25397	-851.36224	242.87045	558.08795	-785.13660	203.49438	531.89417	-869.56903	254.57144	478.98505	-777.69641	226.36887	200.06943	-666.08356	298.96982	159.34953	-627.66968	306.05374	161.38292	-561.56970	256.90677	164.61899	-597.44061	221.41266	172.97020	-722.58386	157.50308	222.30463	-677.92340	175.83792	162.00209	-800.45117	176.55922	180.45871	-528.26428	303.84335	146.32689	-518.28601	-72.51424	143.20023	-876.03137	-78.57954	141.52063	-882.55548	296.19983	144.68681	
136	2.700	-109.43518	128.73090	1005.31427	-310.17581	-41.71693	860.50653	-341.15686	266.15265	900.98175	-383.96625	73.85899	1030.57019	-786.23364	-6.02399	951.52295	-813.73682	192.18721	975.36560	-909.95691	79.71617	1104.62537	-853.22662	-85.56973	855.72455	-775.98376	-15.79558	797.82080	-864.54718	-71.59978	701.59387	-852.82928	-40.38136	596.93298	-833.87762	67.91475	555.63354	-829.79303	-35.31042	555.78821	-770.00165	10.88844	523.31805	-851.91626	-46.47201	468.57962	-773.29059	-14.12890	201.13589	-663.33154	-67.52228	161.59445	-622.20197	-79.41462	156.90112	-563.08704	-35.39584	163.70367	-604.92261	21.08879	167.00899	-730.76434	70.10676	221.94460	-678.10162	52.46110	163.22986	-798.61414	47.81596	172.85100	-855.84021	277.89081	856.23242	-787.52338	210.05156	795.04871	-884.97931	281.31458	726.23669	-886.29346	254.87718	634.91809	-811.69055	140.31807	562.98608	-851.83221	242.89511	558.01532	-785.55438	203.28859	531.84100	-869.90656	254.59935	478.95245	-777.68549	226.37607	200.04204	-666.09949	299.01843	159.32999	-627.66565	306.05746	161.37436	-561.57227	256.90790	164.62614	-597.44458	221.39034	172.93851	-722.58667	157.52760	222.28580	-677.91571	175.82664	162.00285	-800.44727	176.56360	180.44609	-528.26465	303.84036	146.35245	-518.30463	-72.51299	143.19972	-876.03070	-78.57313	141.52702	-882.55322	296.18262	144.66373	
